:SAMPLES-PER-SECOND 30
:FULLY-SPECIFIED
:DEGREES
90
root  -22.99866714 38.77355621 38.00466643 -0.1844210029 2.242219687 2.172149897
lowerback  8.046179771 -0.1185059994 -5.999229908
upperback  1.746709943 -0.6464160085 0.3401049972
thorax  -2.627320051 -0.2821739912 3.793790102
lowerneck  -14.94099998 4.233510017 -4.201029778
upperneck  26.83620071 6.369390011 2.950109959
head  10.87209988 2.843880177 2.634690046
lclavicle  0 -5.34481991e-014 2.981770104e-014
lhumerus  -16.18759918 1.719660163 85.12750244
lradius  0.003583191894 6.643666666e-007 32.77780151
lwrist  -1.645157397e-007 -3.533851896e-007 -1.080869913
lhand  -5.505032044e-031 -15.8135004 33.60620117
lfingers  90 7.125020027 -90
lthumb  93.41605384 18.01962653 79.07819387
rclavicle  0 -5.34481991e-014 2.981770104e-014
rhumerus  -39.34939957 -20.81959724 -71.47540283
rradius  -1.296506525e-006 2.359789448e-007 37.26760101
rwrist  -2.281664457e-008 -8.593936229e-009 16.43939972
rhand  -1.345748685e-031 10.2737999 9.996669769
rfingers  -90 -7.125020027 -90
rthumb  -72.52445805 -22.91766803 -51.04506765
rfemur  -33.1524086 -3.151889086 18.15950394
rtibia  9.670418422e-007 1.119611625e-006 45.26161194
rfoot  2.556521167e-006 -12.34590435 -0.5376175642
rtoes  2.336001174 19.8686595 -96.84438506
lfemur  -4.075697422 -1.681570888 -26.00799179
ltibia  -3.641206786e-005 2.004581745e-007 23.53943634
lfoot  -5.693161143e-007 -15.10531807 -3.77060318
ltoes  -5.298979543 -19.31302686 -105.6655569
91
root  -22.98222189 38.75688868 38.23955866 -0.1849841028 2.080249071 2.383869886
lowerback  7.931139946 -0.1350419968 -6.070489883
upperback  1.778480053 -0.6649609804 0.3587970138
thorax  -2.52696991 -0.2948760092 3.853549957
lowerneck  -14.6413002 4.302740097 -4.16189003
upperneck  26.55179977 6.460179806 2.859139919
head  10.70880032 2.886420012 2.586489916
lclavicle  0 -5.34481991e-014 2.981770104e-014
lhumerus  -16.13330078 1.67204988 85.23310089
lradius  0.003583191894 6.643666666e-007 33.03089905
lwrist  -1.645157397e-007 -3.533851896e-007 -1.60078001
lhand  -5.505032044e-031 -15.8135004 33.60620117
lfingers  90 7.125020027 -90
lthumb  93.41605384 18.01962653 79.07819387
rclavicle  0 -5.34481991e-014 2.981770104e-014
rhumerus  -39.41070175 -20.83849907 -71.37729645
rradius  -1.296506525e-006 2.359789448e-007 37.31990051
rwrist  -2.281664457e-008 -8.593936229e-009 16.40789986
rhand  -1.345748685e-031 10.2737999 9.996669769
rfingers  -90 -7.125020027 -90
rthumb  -72.52445805 -22.91766803 -51.04506765
rfemur  -33.41789627 -3.26205039 18.00779915
rtibia  9.670418422e-007 1.119611625e-006 44.58479691
rfoot  2.556521167e-006 -12.23570251 -0.6634427905
rtoes  2.336001174 19.8686595 -96.84438506
lfemur  -3.389499903 -1.803729773 -26.35000038
ltibia  -3.641206786e-005 2.004581745e-007 23.08049965
lfoot  -5.693161143e-007 -15.20570087 -3.339189768
ltoes  -5.298979543 -19.31302686 -105.6655569
92
root  -22.95911143 38.73111094 38.46533467 -0.145551905 1.823990822 2.797699928
lowerback  7.834310055 -0.1274779886 -6.292319775
upperback  1.815760016 -0.6667699814 0.2997449934
thorax  -2.431829929 -0.2985999882 3.915659904
lowerneck  -14.7361002 4.297369957 -4.089409828
upperneck  26.66270065 6.479310036 2.716119766
head  10.77719975 2.880759954 2.533249855
lclavicle  0 -5.34481991e-014 2.981770104e-014
lhumerus  -15.9677 1.441730142 85.33029938
lradius  0.003583191894 6.643666666e-007 33.3288002
lwrist  -1.645157397e-007 -3.533851896e-007 -1.37240994
lhand  -5.505032044e-031 -15.8135004 33.60620117
lfingers  90 7.125020027 -90
lthumb  93.41605384 18.01962653 79.07819387
rclavicle  0 -5.34481991e-014 2.981770104e-014
rhumerus  -39.41930008 -20.73400116 -71.41880035
rradius  -1.296506525e-006 2.359789448e-007 37.53509903
rwrist  -2.281664457e-008 -8.593936229e-009 16.12619972
rhand  -1.345748685e-031 10.2737999 9.996669769
rfingers  -90 -7.125020027 -90
rthumb  -72.52445805 -22.91766803 -51.04506765
rfemur  -33.8203125 -3.423599482 17.66659737
rtibia  9.670418422e-007 1.119611625e-006 43.8937149
rfoot  2.556521167e-006 -11.64610386 -0.8845102191
rtoes  2.336001174 19.8686595 -96.84438506
lfemur  -2.806704998 -1.817881823 -26.9174881
ltibia  -3.641206786e-005 2.004581745e-007 22.70354652
lfoot  -5.693161143e-007 -15.19402027 -3.097553968
ltoes  -5.298979543 -19.31302686 -105.6655569
93
root  -22.94177709 38.69911254 38.67688817 -0.1065130755 1.582209229 3.117640018
lowerback  7.769619942 -0.1693839878 -6.460669994
upperback  1.815230012 -0.7323439717 0.2667739987
thorax  -2.386859894 -0.3319270015 3.981509924
lowerneck  -14.60809994 4.346389771 -3.918400049
upperneck  26.69179916 6.545429707 2.540090322
head  10.77460003 2.905359983 2.447109938
lclavicle  0 -5.34481991e-014 2.981770104e-014
lhumerus  -15.87090015 1.056849957 85.38610077
lradius  0.003583191894 6.643666666e-007 33.75279999
lwrist  -1.645157397e-007 -3.533851896e-007 -0.5465961099
lhand  -5.505032044e-031 -15.8135004 33.60620117
lfingers  90 7.125020027 -90
lthumb  93.41605384 18.01962653 79.07819387
rclavicle  0 -5.34481991e-014 2.981770104e-014
rhumerus  -39.50519943 -20.58860207 -71.4496994
rradius  -1.296506525e-006 2.359789448e-007 37.6908989
rwrist  -2.281664457e-008 -8.593936229e-009 16.11829948
rhand  -1.345748685e-031 10.2737999 9.996669769
rfingers  -90 -7.125020027 -90
rthumb  -72.52445805 -22.91766803 -51.04506765
rfemur  -34.19539642 -3.465699673 17.41970062
rtibia  9.670418422e-007 1.119611625e-006 43.19789505
rfoot  2.556521167e-006 -11.20749855 -1.513749361
rtoes  2.336001174 19.8686595 -96.84438506
lfemur  -2.321545124 -1.786580682 -27.35539818
ltibia  -3.641206786e-005 2.004581745e-007 22.35890579
lfoot  -5.693161143e-007 -15.12460041 -2.883939981
ltoes  -5.298979543 -19.31302686 -105.6655569
